<svg xmlns="http://www.w3.org/2000/svg" xmlns:xlink="http://www.w3.org/1999/xlink" width="1080" zoomAndPan="magnify" viewBox="0 0 810 809.999993" height="1080" preserveAspectRatio="xMidYMid meet" version="1.0"><defs><clipPath id="931d8efec4"><path d="M 175.679688 149.132812 L 477 149.132812 L 477 452 L 175.679688 452 Z M 175.679688 149.132812 " clip-rule="nonzero"/></clipPath><clipPath id="b5ead0b172"><path d="M 434 255 L 634.679688 255 L 634.679688 454 L 434 454 Z M 434 255 " clip-rule="nonzero"/></clipPath><clipPath id="45d292056b"><path d="M 269 407 L 526 407 L 526 660.632812 L 269 660.632812 Z M 269 407 " clip-rule="nonzero"/></clipPath><clipPath id="7a4fe9483c"><path d="M 458 149.132812 L 560 149.132812 L 560 255 L 458 255 Z M 458 149.132812 " clip-rule="nonzero"/></clipPath></defs><g clip-path="url(#931d8efec4)"><path fill="#d73f23" d="M 311.777344 349.644531 C 284.492188 341.78125 268.753906 313.308594 276.632812 286.058594 C 284.507812 258.804688 313.007812 243.085938 340.300781 250.957031 C 367.585938 258.820312 383.316406 287.292969 375.445312 314.542969 C 367.566406 341.796875 339.0625 357.515625 311.777344 349.644531 Z M 429.550781 353.960938 C 433.027344 347.257812 435.902344 340.128906 438.074219 332.597656 C 440.878906 322.890625 442.363281 313.121094 442.632812 303.46875 L 476.449219 290.710938 L 462.445312 234.191406 L 424.300781 237.59375 C 414.949219 222.960938 402.320312 210.371094 387.082031 201.039062 L 392.929688 165.40625 L 336.917969 149.261719 L 320.8125 183.914062 C 303.015625 184.714844 285.835938 189.597656 270.515625 197.890625 L 242.519531 174.992188 L 200.511719 215.367188 L 222.519531 246.640625 C 219.046875 253.34375 216.175781 260.472656 213.996094 268 C 211.195312 277.710938 209.710938 287.480469 209.4375 297.132812 L 175.625 309.890625 L 189.628906 366.40625 L 227.773438 363.007812 C 237.128906 377.632812 249.757812 390.222656 264.992188 399.5625 L 259.140625 435.195312 L 315.15625 451.34375 L 331.257812 416.683594 C 349.0625 415.886719 366.234375 411.003906 381.558594 402.710938 L 409.558594 425.609375 L 451.566406 385.234375 L 429.550781 353.960938 " fill-opacity="1" fill-rule="nonzero"/></g><g clip-path="url(#b5ead0b172)"><path fill="#338b8c" d="M 543.335938 386.96875 C 525.207031 391.820312 506.578125 381.078125 501.71875 362.972656 C 496.859375 344.867188 507.617188 326.253906 525.742188 321.402344 C 543.871094 316.550781 562.5 327.296875 567.359375 345.398438 C 572.21875 363.503906 561.460938 382.117188 543.335938 386.96875 Z M 611.449219 349.253906 C 611.125 344.28125 610.3125 339.261719 608.972656 334.265625 C 607.242188 327.816406 604.738281 321.777344 601.59375 316.226562 L 616.371094 297.480469 L 589.128906 270.273438 L 568.707031 285.207031 C 558.414062 280.113281 546.964844 277.296875 535.15625 277.210938 L 526.285156 255.050781 L 489.074219 265.015625 L 491.808594 290.117188 C 482.007812 296.632812 473.957031 305.257812 468.121094 315.167969 L 444.457031 311.757812 L 434.488281 348.925781 L 457.628906 359.117188 C 457.953125 364.089844 458.765625 369.109375 460.105469 374.113281 C 461.835938 380.554688 464.339844 386.59375 467.484375 392.144531 L 452.710938 410.890625 L 479.949219 438.097656 L 500.375 423.167969 C 510.664062 428.257812 522.113281 431.074219 533.921875 431.160156 L 542.792969 453.320312 L 580.003906 443.359375 L 577.269531 418.253906 C 587.074219 411.738281 595.121094 403.121094 600.957031 393.203125 L 624.625 396.613281 L 634.589844 359.445312 L 611.449219 349.253906 " fill-opacity="1" fill-rule="nonzero"/></g><g clip-path="url(#45d292056b)"><path fill="#e0a11b" d="M 367.617188 565.8125 C 350.105469 549.390625 349.230469 521.90625 365.664062 504.417969 C 382.105469 486.925781 409.625 486.058594 427.136719 502.472656 C 444.644531 518.886719 445.515625 546.375 429.082031 563.867188 C 412.648438 581.355469 385.128906 582.226562 367.617188 565.8125 Z M 454.628906 614.351562 C 459.828125 610.640625 464.738281 606.375 469.277344 601.546875 C 475.132812 595.316406 480.015625 588.527344 483.9375 581.367188 L 514.320312 584.765625 L 525.566406 536.828125 L 495.53125 524.714844 C 494.132812 510.105469 489.476562 495.769531 481.601562 482.878906 L 499.742188 458.300781 L 463.792969 424.601562 L 438.3125 444.507812 C 424.601562 438.257812 409.785156 435.332031 395.046875 435.679688 L 382.800781 407.675781 L 335.605469 421.921875 L 340.121094 453.929688 C 334.921875 457.640625 330.007812 461.90625 325.46875 466.734375 C 319.617188 472.964844 314.730469 479.753906 310.808594 486.917969 L 280.429688 483.515625 L 269.1875 531.457031 L 299.21875 543.566406 C 300.617188 558.175781 305.273438 572.515625 313.144531 585.402344 L 295.003906 609.984375 L 330.953125 643.679688 L 356.441406 623.777344 C 370.148438 630.023438 384.964844 632.945312 399.699219 632.597656 L 411.953125 660.605469 L 459.140625 646.363281 L 454.628906 614.351562 " fill-opacity="1" fill-rule="nonzero"/></g><g clip-path="url(#7a4fe9483c)"><path fill="#4a3529" d="M 509.203125 220.027344 C 499.230469 220.027344 491.144531 211.949219 491.144531 201.988281 C 491.144531 192.027344 499.230469 183.953125 509.203125 183.953125 C 519.171875 183.953125 527.257812 192.027344 527.257812 201.988281 C 527.257812 211.949219 519.171875 220.027344 509.203125 220.027344 Z M 549.359375 210.023438 C 549.878906 207.425781 550.15625 204.738281 550.15625 201.988281 C 550.15625 198.441406 549.699219 194.996094 548.851562 191.71875 L 559.015625 184.121094 L 548.78125 166.414062 L 536.242188 171.273438 C 531.660156 167.246094 526.171875 164.226562 520.117188 162.558594 L 518.617188 149.96875 L 498.144531 149.96875 L 496.089844 163.226562 C 490.160156 165.226562 484.84375 168.546875 480.480469 172.832031 L 468.804688 167.828125 L 458.570312 185.539062 L 469.042969 193.949219 C 468.527344 196.550781 468.25 199.238281 468.25 201.988281 C 468.25 205.535156 468.703125 208.976562 469.550781 212.261719 L 459.386719 219.851562 L 469.621094 237.5625 L 482.160156 232.699219 C 486.742188 236.730469 492.230469 239.746094 498.285156 241.414062 L 499.785156 254.007812 L 520.257812 254.007812 L 522.308594 240.746094 C 528.242188 238.746094 533.554688 235.429688 537.921875 231.140625 L 549.601562 236.144531 L 559.835938 218.433594 L 549.359375 210.023438 " fill-opacity="1" fill-rule="nonzero"/></g></svg>