<svg xmlns="http://www.w3.org/2000/svg" xmlns:xlink="http://www.w3.org/1999/xlink" width="1080" zoomAndPan="magnify" viewBox="0 0 810 809.999993" height="1080" preserveAspectRatio="xMidYMid meet" version="1.0"><defs><clipPath id="559e4c098b"><path d="M 196 434 L 425 434 L 425 660.210938 L 196 660.210938 Z M 196 434 " clip-rule="nonzero"/></clipPath><clipPath id="6892da0d91"><path d="M 405 149.460938 L 658.378906 149.460938 L 658.378906 403 L 405 403 Z M 405 149.460938 " clip-rule="nonzero"/></clipPath><clipPath id="521fff6935"><path d="M 151.378906 253 L 378 253 L 378 479 L 151.378906 479 Z M 151.378906 253 " clip-rule="nonzero"/></clipPath></defs><g clip-path="url(#559e4c098b)"><path fill="#f89e3a" d="M 314.699219 616.660156 L 377.925781 616.660156 L 377.925781 551.511719 C 382.679688 554.5625 388.320312 556.351562 394.386719 556.351562 C 411.261719 556.351562 424.941406 542.679688 424.941406 525.804688 C 424.941406 508.9375 411.261719 495.261719 394.386719 495.261719 C 388.320312 495.261719 382.679688 497.054688 377.925781 500.101562 L 377.925781 434.949219 L 196.1875 434.949219 L 196.1875 500.246094 C 200.988281 497.101562 206.71875 495.261719 212.886719 495.261719 C 229.753906 495.261719 243.433594 508.9375 243.433594 525.804688 C 243.433594 542.679688 229.753906 556.351562 212.886719 556.351562 C 206.71875 556.351562 200.988281 554.507812 196.1875 551.363281 L 196.1875 616.660156 L 259.414062 616.660156 C 257.566406 620.597656 256.507812 624.96875 256.507812 629.601562 C 256.507812 646.46875 270.183594 660.144531 287.054688 660.144531 C 303.925781 660.144531 317.605469 646.46875 317.605469 629.601562 C 317.605469 624.96875 316.542969 620.597656 314.699219 616.660156 " fill-opacity="1" fill-rule="nonzero"/></g><g clip-path="url(#6892da0d91)"><path fill="#f46d82" d="M 464.480469 318.988281 C 474.089844 305.125 493.125 301.675781 506.988281 311.285156 C 520.855469 320.894531 524.308594 339.925781 514.699219 353.792969 C 511.070312 359.023438 506.097656 362.769531 500.566406 364.890625 L 554.488281 402.257812 L 590.304688 350.589844 C 592.453125 354.066406 595.316406 357.164062 598.882812 359.640625 C 612.75 369.246094 631.78125 365.796875 641.390625 351.933594 C 651.003906 338.070312 647.554688 319.042969 633.6875 309.429688 C 630.121094 306.960938 626.210938 305.363281 622.207031 304.574219 L 658.019531 252.914062 L 605.59375 216.582031 C 609.8125 214.371094 613.574219 211.152344 616.472656 206.972656 C 626.085938 193.109375 622.636719 174.074219 608.769531 164.464844 C 594.902344 154.855469 575.867188 158.304688 566.253906 172.167969 C 563.359375 176.355469 561.667969 181.003906 561.070312 185.726562 L 508.648438 149.398438 L 472.316406 201.8125 C 470.105469 197.597656 466.890625 193.839844 462.710938 190.945312 C 448.84375 181.332031 429.808594 184.789062 420.199219 198.652344 C 410.589844 212.515625 414.039062 231.542969 427.90625 241.15625 C 432.085938 244.050781 436.734375 245.738281 441.453125 246.332031 L 405.121094 298.746094 L 459.042969 336.113281 C 459.089844 330.195312 460.851562 324.226562 464.480469 318.988281 " fill-opacity="1" fill-rule="nonzero"/></g><path fill="#f04044" d="M 559.667969 553.796875 C 563.40625 555.429688 567.527344 556.351562 571.871094 556.351562 C 588.738281 556.351562 602.417969 542.679688 602.417969 525.804688 C 602.417969 508.9375 588.738281 495.261719 571.871094 495.261719 C 567.527344 495.261719 563.40625 496.179688 559.667969 497.8125 L 559.667969 434.949219 L 494.0625 434.949219 C 497.394531 430.058594 499.34375 424.148438 499.34375 417.78125 C 499.34375 400.914062 485.667969 387.238281 468.792969 387.238281 C 451.921875 387.238281 438.246094 400.914062 438.246094 417.78125 C 438.246094 424.148438 440.199219 430.058594 443.53125 434.949219 L 377.925781 434.949219 L 377.925781 500.101562 C 382.679688 497.054688 388.320312 495.261719 394.386719 495.261719 C 411.261719 495.261719 424.941406 508.9375 424.941406 525.804688 C 424.941406 542.679688 411.261719 556.351562 394.386719 556.351562 C 388.320312 556.351562 382.679688 554.5625 377.925781 551.511719 L 377.925781 616.660156 L 443.859375 616.660156 C 440.335938 611.679688 438.246094 605.621094 438.246094 599.054688 C 438.246094 582.1875 451.921875 568.511719 468.792969 568.511719 C 485.667969 568.511719 499.34375 582.1875 499.34375 599.054688 C 499.34375 605.621094 497.257812 611.679688 493.734375 616.660156 L 559.667969 616.660156 L 559.667969 553.796875 " fill-opacity="1" fill-rule="nonzero"/><g clip-path="url(#521fff6935)"><path fill="#99dcc4" d="M 377.925781 371.179688 C 373.707031 373.378906 368.925781 374.640625 363.835938 374.640625 C 346.96875 374.640625 333.289062 360.964844 333.289062 344.097656 C 333.289062 327.226562 346.96875 313.550781 363.835938 313.550781 C 368.925781 313.550781 373.707031 314.808594 377.925781 317.003906 L 377.925781 253.242188 L 316.105469 253.242188 C 317.074219 256.207031 317.605469 259.371094 317.605469 262.660156 C 317.605469 279.527344 303.925781 293.203125 287.054688 293.203125 C 270.183594 293.203125 256.507812 279.527344 256.507812 262.660156 C 256.507812 259.371094 257.039062 256.207031 258 253.242188 L 196.1875 253.242188 L 196.1875 316.894531 C 192.023438 314.769531 187.328125 313.550781 182.335938 313.550781 C 165.460938 313.550781 151.785156 327.222656 151.785156 344.097656 C 151.785156 360.964844 165.464844 374.640625 182.335938 374.640625 C 187.328125 374.640625 192.023438 373.421875 196.1875 371.292969 L 196.1875 434.949219 L 259.621094 434.949219 C 257.644531 438.996094 256.507812 443.523438 256.507812 448.328125 C 256.507812 465.195312 270.183594 478.871094 287.054688 478.871094 C 303.925781 478.871094 317.605469 465.195312 317.605469 448.328125 C 317.605469 443.523438 316.464844 438.996094 314.488281 434.949219 L 377.925781 434.949219 L 377.925781 371.179688 " fill-opacity="1" fill-rule="nonzero"/></g></svg>